<?xml version="1.0" standalone="no"?>
<!DOCTYPE svg PUBLIC "-//W3C//DTD SVG 20010904//EN"
 "http://www.w3.org/TR/2001/REC-SVG-20010904/DTD/svg10.dtd">
<svg version="1.0" xmlns="http://www.w3.org/2000/svg"
 width="512.000000pt" height="512.000000pt" viewBox="0 0 512.000000 512.000000"
 preserveAspectRatio="xMidYMid meet">

<g transform="translate(0.000000,512.000000) scale(0.100000,-0.100000)"
fill="#000000" stroke="none">
<path d="M2175 4949 c-304 -21 -583 -90 -873 -215 -145 -62 -327 -163 -315
-174 4 -4 52 -22 105 -39 107 -36 164 -71 207 -131 55 -77 63 -167 26 -300
-29 -102 -21 -127 135 -438 l139 -277 1 115 1 115 298 198 c164 109 324 209
357 222 79 33 174 51 324 63 202 17 294 56 495 216 66 53 122 96 125 96 3 0
53 -73 112 -163 187 -283 208 -348 208 -656 l1 -206 110 300 c139 380 142 393
143 535 0 140 -16 208 -81 340 -39 80 -61 109 -137 186 -78 78 -106 98 -186
137 -162 79 -168 79 -650 82 -234 2 -479 -1 -545 -6z"/>
<path d="M1857 1802 c-152 -152 -167 -170 -167 -202 0 -32 15 -50 167 -202
l168 -168 52 52 53 53 -132 132 -133 133 133 133 132 132 -53 53 -52 52 -168
-168z"/>
<path d="M3042 1918 l-52 -53 132 -132 133 -133 -133 -133 -132 -132 53 -53
52 -52 168 168 c152 153 167 170 167 202 0 32 -15 50 -168 203 l-167 167 -53
-52z"/>
<path d="M2507 1653 c-126 -167 -230 -310 -233 -317 -4 -11 103 -103 110 -94
40 48 458 613 462 622 4 10 -52 58 -100 87 -6 4 -109 -124 -239 -298z"/>
<path d="M712 1425 c-246 -118 -423 -322 -505 -580 -38 -120 -47 -212 -47
-461 l0 -224 320 0 320 0 0 650 c0 358 -4 650 -8 650 -4 0 -40 -16 -80 -35z"/>
<path d="M4320 811 l0 -651 320 0 320 0 0 218 c0 120 -5 255 -10 301 -31 247
-160 475 -355 631 -65 51 -200 128 -252 145 l-23 6 0 -650z"/>
</g>
</svg>
